<svg xmlns="http://www.w3.org/2000/svg" width="18" height="24" viewBox="0 0 18 24">
  <g id="Group_335" data-name="Group 335" transform="translate(-0.376 0)" opacity="0.75">
    <path id="Path_5295" data-name="Path 5295" d="M.462,0H14.947a.424.424,0,0,1,.462.37V2.957a65.27,65.27,0,0,1-7.659.516A67.868,67.868,0,0,1,0,2.957V.37A.424.424,0,0,1,.462,0Z" transform="translate(1.098 16.334)" fill="rgba(248,68,100,0.95)"/>
    <path id="Rectangle_482" data-name="Rectangle 482" d="M1,0H1A1,1,0,0,1,2,1V13a0,0,0,0,1,0,0H0a0,0,0,0,1,0,0V1A1,1,0,0,1,1,0Z" transform="translate(0.376 11)" fill="rgba(248,68,100,0.95)"/>
    <path id="Rectangle_483" data-name="Rectangle 483" d="M1.5,0h0A1.5,1.5,0,0,1,3,1.5V13a0,0,0,0,1,0,0H0a0,0,0,0,1,0,0V1.5A1.5,1.5,0,0,1,1.5,0Z" transform="translate(15.376 11)" fill="rgba(248,68,100,0.95)"/>
    <path id="Rectangle_484" data-name="Rectangle 484" d="M6.5,0h0A6.5,6.5,0,0,1,13,6.5V17a0,0,0,0,1,0,0H0a0,0,0,0,1,0,0V6.5A6.5,6.5,0,0,1,6.5,0Z" transform="translate(2.376 0)" fill="rgba(248,68,100,0.95)"/>
  </g>
</svg>
